ffmpeg version 5.1.2 Copyright (c) 2000-2022 the FFmpeg developers
  built with Apple clang version 14.0.0 (clang-1400.0.29.102)
  configuration: --prefix=/usr/local/Cellar/ffmpeg/5.1.2 --enable-shared --enable-pthreads --enable-version3 --cc=clang --host-cflags= --host-ldflags= --enable-ffplay --enable-gnutls --enable-gpl --enable-libaom --enable-libbluray --enable-libdav1d --enable-libmp3lame --enable-libopus --enable-librav1e --enable-librist --enable-librubberband --enable-libsnappy --enable-libsrt --enable-libtesseract --enable-libtheora --enable-libvidstab --enable-libvmaf --enable-libvorbis --enable-libvpx --enable-libwebp --enable-libx264 --enable-libx265 --enable-libxml2 --enable-libxvid --enable-lzma --enable-libfontconfig --enable-libfreetype --enable-frei0r --enable-libass --enable-libopencore-amrnb --enable-libopencore-amrwb --enable-libopenjpeg --enable-libspeex --enable-libsoxr --enable-libzmq --enable-libzimg --disable-libjack --disable-indev=jack --enable-videotoolbox
  libavutil      57. 28.100 / 57. 28.100
  libavcodec     59. 37.100 / 59. 37.100
  libavformat    59. 27.100 / 59. 27.100
  libavdevice    59.  7.100 / 59.  7.100
  libavfilter     8. 44.100 /  8. 44.100
  libswscale      6.  7.100 /  6.  7.100
  libswresample   4.  7.100 /  4.  7.100
  libpostproc    56.  6.100 / 56.  6.100
Guessed Channel Layout for Input Stream #0.0 : stereo
Input #0, wav, from '/Volumes/Boston/Data/NLP/SharedTask/ASR/Pilot_Data/audio_to_release/yrk/TOYa_audio_TNenets.wav':
  Duration: 00:17:21.02, bitrate: 1411 kb/s
  Stream #0:0: Audio: pcm_s16le ([1][0][0][0] / 0x0001), 44100 Hz, stereo, s16, 1411 kb/s
Stream mapping:
  Stream #0:0 -> #0:0 (pcm_s16le (native) -> pcm_s16le (native))
Press [q] to stop, [?] for help
Output #0, wav, to '/Volumes/Boston/Scratch/dli_del/wav_split_gold/274.wav':
  Metadata:
    ISFT            : Lavf59.27.100
  Stream #0:0: Audio: pcm_s16le ([1][0][0][0] / 0x0001), 16000 Hz, stereo, s16, 512 kb/s
    Metadata:
      encoder         : Lavc59.37.100 pcm_s16le
size=       0kB time=00:00:00.00 bitrate=N/A speed=   0x    size=     115kB time=00:00:01.83 bitrate= 512.3kbits/s speed=3.98x    
video:0kB audio:115kB subtitle:0kB other streams:0kB global headers:0kB muxing overhead: 0.066308%
